<svg xmlns="http://www.w3.org/2000/svg" viewBox="0 0 388 366" fill="none" stroke="black" stroke-width="3">
<path d="M 356,30 L 354,32 L 353,32 L 350,35 L 349,35 L 346,38 L 345,38 L 344,39 L 343,39 L 341,41 L 340,41 L 337,44 L 336,44 L 334,46 L 333,46 L 330,49 L 329,49 L 326,52 L 325,52 L 322,55 L 321,55 L 319,57 L 318,57 L 314,61 L 314,63 L 315,64 L 320,64 L 321,63 L 323,63 L 324,62 L 327,62 L 328,61 L 330,61 L 331,60 L 333,60 L 334,61 L 334,62 L 332,64 L 332,65 L 330,67 L 330,69 L 328,71 L 328,72 L 327,73 L 327,74 L 326,75 L 326,76 L 324,78 L 324,79 L 323,80 L 323,81 L 322,82 L 322,83 L 321,84 L 321,85 L 320,86 L 320,87 L 318,89 L 318,91 L 316,93 L 316,95 L 314,97 L 314,99 L 313,100 L 313,101 L 312,102 L 312,103 L 310,105 L 310,107 L 309,108 L 309,109 L 308,110 L 308,111 L 307,112 L 307,113 L 306,114 L 306,115 L 305,116 L 305,117 L 304,118 L 304,119 L 303,120 L 303,121 L 302,122 L 302,124 L 301,125 L 301,126 L 300,127 L 300,128 L 299,129 L 299,130 L 298,131 L 298,132 L 297,133 L 297,135 L 295,137 L 295,139 L 294,140 L 294,141 L 293,142 L 293,143 L 292,144 L 292,145 L 291,146 L 291,147 L 290,148 L 290,149 L 289,150 L 289,151 L 288,152 L 288,153 L 287,154 L 287,155 L 286,156 L 286,157 L 285,158 L 285,159 L 284,160 L 284,161 L 283,162 L 283,164 L 281,166 L 281,168 L 279,170 L 279,172 L 278,173 L 278,174 L 277,175 L 277,176 L 275,178 L 266,169 L 266,168 L 260,162 L 260,161 L 250,151 L 249,151 L 248,150 L 245,150 L 244,151 L 243,151 L 242,152 L 241,152 L 240,153 L 240,154 L 238,156 L 238,157 L 237,158 L 237,159 L 236,160 L 236,161 L 235,162 L 235,163 L 234,164 L 234,165 L 233,166 L 233,167 L 232,168 L 232,169 L 231,170 L 231,171 L 230,172 L 230,173 L 229,174 L 229,175 L 228,176 L 228,177 L 227,178 L 227,179 L 226,180 L 226,181 L 225,182 L 225,183 L 224,184 L 224,186 L 223,187 L 223,188 L 222,189 L 222,190 L 221,191 L 221,192 L 220,193 L 220,194 L 219,195 L 219,196 L 218,197 L 218,198 L 217,199 L 217,201 L 216,202 L 216,203 L 215,204 L 215,205 L 214,206 L 214,207 L 213,208 L 213,209 L 212,210 L 212,211 L 211,212 L 211,213 L 210,214 L 210,215 L 209,216 L 209,218 L 208,219 L 208,220 L 207,221 L 207,222 L 206,223 L 206,224 L 205,225 L 205,226 L 204,227 L 201,224 L 201,223 L 197,219 L 197,218 L 194,215 L 194,214 L 192,212 L 192,211 L 190,209 L 190,208 L 187,205 L 187,204 L 184,201 L 183,201 L 182,200 L 181,200 L 180,199 L 177,199 L 176,200 L 175,200 L 172,203 L 172,204 L 170,206 L 170,207 L 169,208 L 169,209 L 168,210 L 168,211 L 167,212 L 167,213 L 166,214 L 166,215 L 165,216 L 165,217 L 164,218 L 164,220 L 162,222 L 162,224 L 161,225 L 161,226 L 160,227 L 160,228 L 159,229 L 159,230 L 158,231 L 158,233 L 157,234 L 157,235 L 156,236 L 156,237 L 155,238 L 155,239 L 154,240 L 154,241 L 153,242 L 153,243 L 152,244 L 152,246 L 151,247 L 151,248 L 150,249 L 150,250 L 149,251 L 149,252 L 148,253 L 148,254 L 147,255 L 147,256 L 146,257 L 146,259 L 145,260 L 145,261 L 144,262 L 144,263 L 143,264 L 143,266 L 142,267 L 142,268 L 141,269 L 141,270 L 140,271 L 140,273 L 139,274 L 139,275 L 138,276 L 138,277 L 137,278 L 130,271 L 130,270 L 126,266 L 126,265 L 122,261 L 122,260 L 118,256 L 118,255 L 106,243 L 104,243 L 103,242 L 101,242 L 100,243 L 99,243 L 98,244 L 97,244 L 96,245 L 96,246 L 94,248 L 94,249 L 93,250 L 93,251 L 92,252 L 92,253 L 90,255 L 90,257 L 88,259 L 88,261 L 86,263 L 86,264 L 85,265 L 85,266 L 84,267 L 84,268 L 83,269 L 83,270 L 82,271 L 82,273 L 80,275 L 80,277 L 78,279 L 78,281 L 76,283 L 76,285 L 75,286 L 75,287 L 74,288 L 74,289 L 73,290 L 73,291 L 72,292 L 72,293 L 70,295 L 70,297 L 68,299 L 68,301 L 66,303 L 66,305 L 65,306 L 65,307 L 64,308 L 64,310 L 63,311 L 63,313 L 62,314 L 62,316 L 61,317 L 61,318 L 60,319 L 60,324 L 61,324 L 61,323 L 63,321 L 63,320 L 65,318 L 65,317 L 66,316 L 66,315 L 67,314 L 67,313 L 69,311 L 69,310 L 71,308 L 71,307 L 72,306 L 72,305 L 73,304 L 73,303 L 75,301 L 75,300 L 77,298 L 77,296 L 79,294 L 79,293 L 80,292 L 80,291 L 81,290 L 81,289 L 82,288 L 82,287 L 83,286 L 83,285 L 84,284 L 84,283 L 85,282 L 85,281 L 86,280 L 86,279 L 87,278 L 87,277 L 88,276 L 88,275 L 89,274 L 89,273 L 90,272 L 90,271 L 91,270 L 91,269 L 92,268 L 92,267 L 94,265 L 94,264 L 95,263 L 95,262 L 96,261 L 96,260 L 98,258 L 98,256 L 100,254 L 100,253 L 102,251 L 104,251 L 106,253 L 106,254 L 114,262 L 114,263 L 119,268 L 119,269 L 123,273 L 123,274 L 127,278 L 127,279 L 128,279 L 129,280 L 129,281 L 131,283 L 132,283 L 135,286 L 140,286 L 143,283 L 143,282 L 144,281 L 144,280 L 145,279 L 145,277 L 147,275 L 147,273 L 149,271 L 149,269 L 150,268 L 150,267 L 151,266 L 151,265 L 152,264 L 152,263 L 153,262 L 153,260 L 155,258 L 155,256 L 156,255 L 156,254 L 157,253 L 157,252 L 158,251 L 158,250 L 159,249 L 159,247 L 160,246 L 160,245 L 161,244 L 161,243 L 162,242 L 162,241 L 163,240 L 163,239 L 164,238 L 164,237 L 165,236 L 165,235 L 166,234 L 166,232 L 167,231 L 167,230 L 168,229 L 168,228 L 169,227 L 169,226 L 170,225 L 170,224 L 171,223 L 171,222 L 172,221 L 172,220 L 173,219 L 173,218 L 174,217 L 174,215 L 175,214 L 175,213 L 176,212 L 176,211 L 179,208 L 180,208 L 182,210 L 182,211 L 184,213 L 184,214 L 187,217 L 187,218 L 189,220 L 189,221 L 191,223 L 191,224 L 193,226 L 193,227 L 201,235 L 202,235 L 203,236 L 206,236 L 207,235 L 208,235 L 211,232 L 211,230 L 212,229 L 212,228 L 213,227 L 213,226 L 214,225 L 214,224 L 215,223 L 215,222 L 216,221 L 216,220 L 217,219 L 217,217 L 219,215 L 219,213 L 220,212 L 220,211 L 221,210 L 221,209 L 223,207 L 223,205 L 224,204 L 224,203 L 225,202 L 225,201 L 226,200 L 226,199 L 227,198 L 227,197 L 228,196 L 228,195 L 229,194 L 229,193 L 230,192 L 230,191 L 231,190 L 231,188 L 233,186 L 233,184 L 234,183 L 234,182 L 235,181 L 235,180 L 236,179 L 236,178 L 237,177 L 237,176 L 239,174 L 239,172 L 241,170 L 241,168 L 243,166 L 243,164 L 245,162 L 245,161 L 247,159 L 249,161 L 249,162 L 256,169 L 256,170 L 264,178 L 264,179 L 265,179 L 266,180 L 266,181 L 267,181 L 273,187 L 279,187 L 282,184 L 282,183 L 283,182 L 283,181 L 284,180 L 284,179 L 285,178 L 285,177 L 286,176 L 286,175 L 287,174 L 287,173 L 288,172 L 288,171 L 289,170 L 289,169 L 290,168 L 290,167 L 291,166 L 291,165 L 292,164 L 292,163 L 293,162 L 293,161 L 294,160 L 294,159 L 295,158 L 295,156 L 297,154 L 297,152 L 298,151 L 298,150 L 299,149 L 299,148 L 300,147 L 300,146 L 301,145 L 301,144 L 302,143 L 302,142 L 303,141 L 303,140 L 304,139 L 304,138 L 305,137 L 305,136 L 306,135 L 306,134 L 307,133 L 307,131 L 309,129 L 309,127 L 310,126 L 310,125 L 311,124 L 311,123 L 312,122 L 312,121 L 313,120 L 313,118 L 314,117 L 314,116 L 315,115 L 315,114 L 316,113 L 316,112 L 317,111 L 317,110 L 318,109 L 318,108 L 319,107 L 319,106 L 320,105 L 320,104 L 321,103 L 321,102 L 323,100 L 323,98 L 325,96 L 325,95 L 326,94 L 326,93 L 327,92 L 327,91 L 328,90 L 328,89 L 329,88 L 329,87 L 331,85 L 331,83 L 333,81 L 333,80 L 334,79 L 334,78 L 335,77 L 335,76 L 337,74 L 337,73 L 338,72 L 338,71 L 339,70 L 339,69 L 341,67 L 341,66 L 343,64 L 343,63 L 344,62 L 345,63 L 345,67 L 346,68 L 346,70 L 347,71 L 347,75 L 348,76 L 348,77 L 349,78 L 352,78 L 352,77 L 353,76 L 353,71 L 354,70 L 354,63 L 355,62 L 355,58 L 356,57 L 356,50 L 357,49 L 357,46 L 358,45 L 358,39 L 359,38 L 359,35 L 360,34 L 360,32 L 359,31 L 359,30" /><path d="M 31,13 L 29,15 L 29,17 L 28,18 L 28,20 L 27,21 L 27,22 L 26,23 L 26,24 L 25,25 L 25,27 L 24,28 L 24,29 L 23,30 L 23,32 L 22,33 L 22,34 L 21,35 L 21,36 L 20,37 L 20,38 L 19,39 L 19,41 L 18,42 L 18,43 L 17,44 L 17,46 L 16,47 L 16,48 L 15,49 L 15,51 L 14,52 L 14,54 L 13,55 L 14,56 L 14,57 L 16,57 L 19,54 L 19,53 L 20,52 L 20,51 L 22,49 L 22,47 L 24,45 L 24,44 L 25,43 L 25,42 L 26,41 L 26,40 L 28,38 L 29,39 L 29,106 L 30,107 L 30,182 L 31,183 L 30,184 L 30,187 L 31,188 L 31,336 L 30,337 L 31,338 L 31,339 L 49,339 L 50,340 L 65,340 L 66,339 L 67,340 L 276,340 L 277,341 L 280,341 L 281,340 L 282,341 L 348,341 L 349,342 L 349,343 L 348,344 L 346,344 L 344,346 L 343,346 L 342,347 L 341,347 L 339,349 L 338,349 L 337,350 L 336,350 L 334,352 L 333,352 L 331,354 L 331,355 L 332,356 L 332,357 L 337,357 L 338,356 L 340,356 L 341,355 L 342,355 L 343,354 L 345,354 L 346,353 L 348,353 L 349,352 L 350,352 L 351,351 L 352,351 L 353,350 L 354,350 L 355,349 L 357,349 L 358,348 L 359,348 L 360,347 L 361,347 L 362,346 L 363,346 L 364,345 L 366,345 L 367,344 L 368,344 L 369,343 L 370,343 L 371,342 L 372,342 L 373,341 L 374,341 L 376,339 L 376,337 L 375,336 L 375,335 L 374,335 L 372,333 L 371,333 L 370,332 L 369,332 L 368,331 L 366,331 L 365,330 L 364,330 L 363,329 L 361,329 L 360,328 L 359,328 L 358,327 L 356,327 L 355,326 L 354,326 L 353,325 L 351,325 L 350,324 L 349,324 L 348,323 L 346,323 L 345,322 L 344,322 L 343,321 L 341,321 L 340,320 L 339,320 L 338,319 L 333,319 L 333,320 L 332,321 L 332,323 L 334,325 L 335,325 L 337,327 L 338,327 L 340,329 L 341,329 L 342,330 L 343,330 L 344,331 L 345,331 L 346,332 L 347,332 L 349,334 L 348,335 L 278,335 L 277,336 L 276,335 L 275,336 L 274,335 L 273,335 L 272,336 L 271,336 L 270,335 L 269,336 L 35,336 L 34,335 L 34,288 L 35,287 L 35,284 L 34,283 L 35,282 L 35,44 L 36,43 L 36,39 L 37,38 L 38,39 L 38,40 L 39,41 L 39,43 L 40,44 L 40,45 L 41,46 L 41,47 L 42,48 L 42,49 L 43,50 L 43,51 L 45,53 L 45,55 L 47,57 L 47,58 L 50,61 L 52,61 L 54,59 L 54,56 L 53,55 L 53,53 L 52,52 L 52,51 L 51,50 L 51,49 L 50,48 L 50,47 L 49,46 L 49,44 L 48,43 L 48,42 L 47,41 L 47,39 L 46,38 L 46,37 L 45,36 L 45,35 L 44,34 L 44,33 L 43,32 L 43,30 L 42,29 L 42,28 L 41,27 L 41,26 L 40,25 L 40,24 L 38,22 L 38,21 L 37,20 L 37,18 L 36,17 L 36,16 L 33,13" />
</svg>