<?xml version="1.0" encoding="UTF-8"?>
<svg version="1.1" xmlns="http://www.w3.org/2000/svg" width="128" height="128">
<path d="M0 0 C1.30904297 0.54333984 1.30904297 0.54333984 2.64453125 1.09765625 C15.58613897 6.96213287 25.55771084 17.0307398 32.3125 29.375 C32.63814941 29.96289307 32.96379883 30.55078613 33.29931641 31.15649414 C38.07313631 40.33051986 39.54065403 49.62066398 39.4375 59.875 C39.43065186 60.9263916 39.42380371 61.9777832 39.41674805 63.06103516 C39.25207948 71.03790106 38.27122293 77.65315505 35 85 C34.63777344 85.87269531 34.27554688 86.74539062 33.90234375 87.64453125 C26.21036706 104.61902897 11.95251411 115.30081733 -4.859375 122.16796875 C-21.15000275 127.18228047 -40.5122321 125.09818754 -55.5 117.5 C-71.91873216 108.59772371 -82.60885123 94.20575147 -88.11328125 76.3984375 C-91.21559644 63.30712927 -90.47677869 47.30030624 -85 35 C-84.63777344 34.12730469 -84.27554688 33.25460938 -83.90234375 32.35546875 C-76.9799626 17.07929883 -64.35962165 6.03063924 -48.99609375 -0.22265625 C-33.66616238 -5.9177972 -15.16398211 -6.75184605 0 0 Z M-68.9375 22.0625 C-69.98144726 23.35669128 -71.00406539 24.66850791 -72 26 C-72.44730469 26.5775 -72.89460938 27.155 -73.35546875 27.75 C-81.03144719 38.70893537 -84.60396301 54.12855115 -82.46875 67.26953125 C-79.21221916 83.60528106 -72.64319195 96.79511247 -59 107 C-58.4225 107.44730469 -57.845 107.89460938 -57.25 108.35546875 C-44.71087017 117.13826443 -28.52329501 119.43771444 -13.75 116.875 C2.18624601 113.6616485 14.91572569 104.34252789 24 91 C32.61802932 76.59173223 34.66366254 61.68849903 30.8984375 45.453125 C26.90035112 30.0865669 17.5536208 18.41922852 4.3125 9.8125 C-20.03987387 -4.24272813 -50.28275649 1.50172834 -68.9375 22.0625 Z " fill="#FFFFFF" transform="translate(89,4)"/>
<path d="M0 0 C3.96 0 7.92 0 12 0 C12.33 0.66 12.66 1.32 13 2 C13.99 1.34 14.98 0.68 16 0 C21.00074514 -0.80520473 24.81105017 -0.8421728 29 2.125 C33.49569008 8.58755449 33.25231191 14.78525127 33.125 22.375 C33.11597656 23.39722656 33.10695312 24.41945313 33.09765625 25.47265625 C33.07420563 27.9818724 33.03833836 30.49096716 33 33 C28.71 33 24.42 33 20 33 C19.505 21.615 19.505 21.615 19 10 C17.35 10.33 15.7 10.66 14 11 C13.09166031 13.72501908 12.81640015 15.62233971 12.68359375 18.44921875 C12.64169922 19.29677734 12.59980469 20.14433594 12.55664062 21.01757812 C12.51732422 21.89865234 12.47800781 22.77972656 12.4375 23.6875 C12.39431641 24.58017578 12.35113281 25.47285156 12.30664062 26.39257812 C12.2006478 28.59487344 12.09982779 30.79741662 12 33 C8.04 33 4.08 33 0 33 C0 22.11 0 11.22 0 0 Z " fill="#FFFFFF" transform="translate(58,55)"/>
<path d="M0 0 C4.29 0 8.58 0 13 0 C13 10.89 13 21.78 13 33 C8.71 33 4.42 33 0 33 C0 22.11 0 11.22 0 0 Z " fill="#FFFFFF" transform="translate(40,55)"/>
<path d="M0 0 C3.375 0.9375 3.375 0.9375 5.375 3.9375 C5.1875 7.5 5.1875 7.5 4.375 10.9375 C1.375 12.9375 1.375 12.9375 -2.1875 12.75 C-5.625 11.9375 -5.625 11.9375 -7.625 8.9375 C-8.12951649 5.65814281 -7.90022753 4.35584584 -6.0625 1.5625 C-3.625 -0.0625 -3.625 -0.0625 0 0 Z " fill="#FFFFFF" transform="translate(47.625,40.0625)"/>
</svg>
